PathFileType	3	(X/Y/Z)	D:\Jess\Healthy\Labelled\HA07\20250404\SRRun01.trc
DataRate	CameraRate	NumFrames	NumMarkers	Units	OrigDataRate	OrigDataStartFrame	OrigNumFrames
250.0	250.0	6	33	mm	250.0	36875	2501
Frame#	Time	C7			T10			CLAV			LSHO			RSHO			LASIS			RASIS			LPSIS			RPSIS			LILCR			RILCR			LGTR			LTHI			LLTHI			LLEP			LPSH			LLSH			LDSH			LLMAL			LTOE			L5TH			LHEE			RGTR			RTHI			RLTHI			RLEP			RPSH			RLSH			RDSH			RLMAL			RTOE			R5TH			RHEE			
		X1	Y1	Z1	X2	Y2	Z2	X3	Y3	Z3	X4	Y4	Z4	X5	Y5	Z5	X6	Y6	Z6	X7	Y7	Z7	X8	Y8	Z8	X9	Y9	Z9	X10	Y10	Z10	X11	Y11	Z11	X12	Y12	Z12	X13	Y13	Z13	X14	Y14	Z14	X15	Y15	Z15	X16	Y16	Z16	X17	Y17	Z17	X18	Y18	Z18	X19	Y19	Z19	X20	Y20	Z20	X21	Y21	Z21	X22	Y22	Z22	X23	Y23	Z23	X24	Y24	Z24	X25	Y25	Z25	X26	Y26	Z26	X27	Y27	Z27	X28	Y28	Z28	X29	Y29	Z29	X30	Y30	Z30	X31	Y31	Z31	X32	Y32	Z32	X33	Y33	Z33	

1876	147.496	1058.538368486838	1341.647881186778	-300.4899073964752	973.0813226725718	1137.880711155783	-286.9373314422076	1183.613876612668	1251.248853816009	-293.3347495917299	1111.390539298576	1318.315546700142	-453.9086380422312	1103.311324642521	1327.944025891122	-149.1941990569712	1121.602696679877	901.237275408657	-399.9894873895377	1132.96364822486	893.6474449127113	-168.1138845941141	958.4120821950604	946.0899267862046	-284.3771194660725	963.0240064711451	942.610066306543	-243.6692563828059	1057.675891521711	931.2592006592359	-441.9358941167247	1070.357033280142	922.9542077707958	-126.3441210564293	1040.302505532286	827.0671092297933	-458.3338220456479	1162.169063521143	691.1793799993726	-394.0982206599259	1067.651327270821	590.4482441571789	-432.8964129346811	1072.588578740165	428.3615815608939	-400.4731533468773	1098.938679366733	341.993794507639	-345.547362405572	972.3019068572056	276.2673204360745	-392.2225584143029	979.5394362377946	172.0385908001738	-313.0055436310495	887.4906195783333	108.2224043930665	-337.5111394360738	1005.92509952195	57.13372178503099	-331.7337101759053	962.7059026791388	44.88583981272102	-369.5347572876848	808.0495918238231	96.52304146261737	-288.400901135176	1082.275940785596	813.2193062581244	-117.5160928765298	1216.753300793258	716.805624927651	-205.7952501038812	1193.725655991904	601.1888782326132	-134.3789399896228	1241.951474136707	453.0519373920094	-166.0654693986141	1216.799855160909	371.969618330946	-222.656098578708	1093.081478176731	389.433709598363	-150.4345162461336	1024.316855864495	285.1969134636904	-208.8627007257976	921.6711401908805	275.9932380263992	-171.4888351494989	943.6996683552767	150.7378690844221	-181.1294261505582	903.7047643198779	168.990985481409	-140.4355476456244	858.7890925891852	329.0638955057711	-217.2146031965237	
1877	147.5	1058.362195282022	1343.968326970437	-300.9472036262242	973.0953694094335	1140.089909721997	-288.5970898668635	1183.533161233835	1253.767847745285	-292.1516822282044	1113.156089297136	1320.753595041944	-453.5642493117436	1101.275749499931	1330.30672695641	-149.0993475876498	1122.274298537023	902.7721572276846	-400.2976680030961	1132.128464477068	896.391475019519	-168.2717981164479	958.4286120251153	948.2106993949114	-285.6023380014013	962.6839795949401	944.8363236641133	-244.8481449916409	1058.615636550991	932.9103218156299	-442.3800314560979	1069.303744946743	925.7382029508374	-126.8491632738719	1040.279297177945	828.6270720701851	-458.5815904173911	1159.607796110339	691.0692600998063	-393.9083951107402	1062.903815583091	591.8143640795977	-432.2924220369429	1064.874374646884	429.7000104923676	-399.8800112377251	1090.1931513816	342.9599699771557	-344.7879437691962	963.41896200862	278.1148425346231	-391.9513994329325	969.8956691990941	173.4611650789902	-312.9320891667648	877.6177679911634	109.8969869463447	-337.7329309667588	995.1414724438059	57.07104542322124	-331.7155738057294	951.8669493330481	45.12430632571081	-369.4791615526893	798.0502938558099	99.23279920264252	-288.810350774344	1081.493483884901	816.1247862586121	-117.4359337078252	1217.130712426929	721.4636097545531	-205.6627264720256	1195.636435596681	605.5213664380357	-134.3244441274501	1245.570453916936	457.9864473396213	-165.9579203504931	1223.0814573544	375.7600380279671	-222.1734069884515	1098.411634308092	389.9253915765127	-150.8267676097222	1033.359966706668	282.9008644462616	-208.8049559733136	930.9010204613639	270.3618295532831	-171.8152395559941	957.5466052250086	145.9817672015281	-181.328004035452	916.7752586394847	162.7285533156094	-140.7433705297218	866.2461879197433	321.1515878489178	-217.65239881298	
1878	147.504	1058.205788709253	1346.432728541227	-301.3744510053195	973.183334789255	1142.428946320945	-290.2552262516018	1183.465174847623	1256.449460716035	-290.9692554435427	1114.88864710018	1323.369266314297	-453.1727616682442	1099.297852154242	1332.796445788038	-149.012024399116	1123.044336079895	904.4157336670103	-400.6295862528235	1131.394505461259	899.3263127978333	-168.4834640472173	958.5576928119023	950.4507153895725	-286.827468974042	962.4416825399622	947.203178977472	-246.0239976055599	1059.639497281544	934.6461334365695	-442.8189583369223	1068.378612825135	928.7344634885764	-127.3713940753379	1040.328334953412	830.2884236931106	-458.8047448483372	1157.122497953113	691.1487988319224	-393.6378677614898	1058.299521547396	593.4081803111951	-431.6945009883048	1057.207426004898	431.3468366532082	-399.2915324170436	1081.46669545186	344.2223019693654	-344.0225445771798	954.6072727455597	280.2242464869751	-391.7083896124959	960.3720940072025	175.1066700239033	-312.9036295493527	867.9111748976251	111.7269152645773	-338.0005108911418	984.4010475321031	57.03380170143463	-331.7094937776969	941.0795921159267	45.38694152308669	-369.4326681531198	788.2200030594479	102.2019690421917	-289.2793816729875	1080.864595534501	819.2572684197038	-117.3344393160191	1217.433572339107	726.2356206116636	-205.604304784543	1197.361934150867	609.940188973152	-134.2876886170929	1248.821706162606	462.9520342140361	-165.8430823102802	1229.116884505098	379.620281521463	-221.6741956718278	1103.570234924952	390.2495148884626	-151.2003108977095	1042.454500048551	280.5388055201468	-208.7830097018022	940.2911995011061	264.5347564111452	-172.1910092893008	971.6300882030159	141.2010681907668	-181.6167701055413	930.0966847858729	156.3594774029565	-141.1535686718885	873.9251049251919	312.9520443454741	-218.1417597509881	
1879	147.508	1058.0724267393	1349.026533005273	-301.7736334107888	973.3434533665165	1144.886368447987	-291.9066804484523	1183.40824053242	1259.27552428325	-289.792773498447	1116.58678470385	1326.146573247337	-452.7377103343512	1097.385031611074	1335.396978451667	-148.9341292332985	1123.915253421916	906.1623020134036	-400.9734216476943	1130.758418511143	902.4390118742484	-168.7423363292087	958.7984459439923	952.8027272827544	-288.0499873858567	962.2974111886094	949.7008556571028	-247.1947370271176	1060.754928141059	936.4654241237889	-443.247194909336	1067.57579478242	931.927724760707	-127.9083495001445	1040.460549014361	832.0504759746567	-459.0062279713319	1154.723383539291	691.4145985746842	-393.2801333457829	1053.858625752456	595.2258266772379	-431.1147636828707	1049.593046288214	433.2963317279979	-398.7182698909984	1072.774311288462	345.774131533175	-343.2756321491914	945.8654298393142	282.5951803389137	-391.4984837155758	950.9873118493972	176.972322861768	-312.9312041718115	858.3857583387355	113.7105018589889	-338.3150055876385	973.709305014967	57.01997867998012	-331.7176204895648	930.3485013656276	45.6736141002669	-369.3969207790535	778.5780301398785	105.4332430138418	-289.8033310799856	1080.382221608289	822.6021489695623	-117.2146172382786	1217.671744418396	731.0958620558915	-205.6146960599207	1198.903922302393	614.4147427183418	-134.2691605582689	1251.711199079549	467.9062967422404	-165.7293233577849	1234.897612386786	383.5247005477466	-221.1736419672185	1108.581862899591	390.3795728673316	-151.5479881550153	1051.605198926886	278.1168775319903	-208.8010369611806	949.8605613556884	258.5314720741919	-172.6129624044779	985.9436770094845	136.4224830673407	-181.9890490630795	943.6755639289253	149.9162243312225	-141.6577102896946	881.8526704144806	304.489715953307	-218.6795411587736	
1880	147.512	1057.964446041345	1351.734671158583	-302.147102927055	973.5736263888772	1147.44951360508	-293.5466516355079	1183.360167328449	1262.227897483176	-288.6273007977751	1118.249323447689	1329.069004931609	-452.2625546722684	1095.542913931272	1338.092145644527	-148.867415214404	1124.888183362503	908.0049172827246	-401.3172259408912	1130.216285184774	905.7145709258288	-169.0417274264717	959.1491699642803	955.2589540091064	-289.267447137966	962.251159076937	952.3186622583969	-248.3584591749393	1061.968803101592	938.3666050362378	-443.6593389723177	1066.888738052385	935.3004148512016	-128.4580443400408	1040.686275573496	833.9111156811821	-459.1896012780458	1152.418754113874	691.8589870121203	-392.8335488937254	1049.595217826612	597.2596041276844	-430.5637482402677	1042.036719501566	435.5395516183021	-398.1699620270835	1064.131724712909	347.60671886913	-342.5702353380781	937.1932562977421	285.2245973378466	-391.3255434752987	941.7602501659001	179.0532177869656	-313.025112660994	849.0560124861928	115.8447360066212	-338.6768308859765	963.0724360980914	57.02751007348201	-331.7420755002396	919.6786240561461	45.98563699355812	-369.37340532668	769.1445740206498	108.9267004565665	-290.3763783989042	1080.037223567201	826.1426018477595	-117.0805776105634	1217.857200188454	736.0187566216656	-205.6852543827356	1200.264691076619	618.9153691675299	-134.2708839857374	1254.246871153394	472.8087615560462	-165.624956388814	1240.415880019478	387.4479251691891	-220.6868359007504	1113.472536945197	390.2923967535147	-151.8632040795202	1060.816299775785	275.6420111400673	-208.8629920124811	959.6274441859978	252.3727904796134	-173.0774051019868	1000.480940032925	131.6737378235707	-182.4390574176546	957.5184649115918	143.4324081203061	-142.2477959229791	890.0535670076523	295.7906503719715	-219.2604317244982	
1881	147.516	1057.883174991972	1354.541617504246	-302.4974803671145	973.8714587281615	1150.104515064188	-295.1706152607069	1183.318416111134	1265.288608573305	-287.4775692487715	1119.875167142819	1332.11962564077	-451.7506331951552	1093.775341395042	1340.865871255864	-148.8134580600911	1125.962792933901	909.9351203652493	-401.649365140442	1129.763876217029	909.1358267693508	-169.3751490221002	959.607385794329	957.8111081166418	-290.477535766923	962.302602589481	955.0451283418815	-249.513449648716	1063.28707363267	940.3472744810132	-444.050292207935	1066.31064463647	938.8329039891006	-129.0189969955653	1041.014759893015	835.866574364403	-459.3589748156275	1150.214685587089	692.4704331855221	-392.3013183702802	1045.51725969845	599.4983430780511	-430.0503043827983	1034.544742173086	438.0645192024469	-397.6552403656156	1055.555655675048	349.7093348755888	-341.927015285654	928.5928077112858	288.1065054493062	-391.1922160443293	932.7099967347701	181.3423887007646	-313.1945709278075	839.9358848409487	118.1254762671863	-339.0857712449247	952.4973924740266	57.05450431640703	-331.7850373208615	909.0752786449686	46.32601044596738	-369.3634556349813	759.9406108661135	112.6799035986858	-290.9917730822675	1079.818788576866	829.8597762735504	-116.937330047231	1218.003612638695	740.9792076147279	-205.8043563285944	1201.446726543492	623.4137038275464	-134.2963820991478	1256.438213484036	477.6212817526831	-165.5378384911496	1245.664598173568	391.3650489672448	-220.2282760645094	1118.268865464026	389.9688548297524	-152.1401191243289	1070.091169561252	273.1220670489109	-208.9724612852842	969.6091794703642	246.0810436998822	-173.580204194646	1015.235378640835	126.9838776124945	-182.962109996171	971.6318134290337	136.9430073286179	-142.9164673186692	898.5499027578298	286.8824111852821	-219.8770455079347	
